<svg version="1.1" id="Layer_1" xmlns="http://www.w3.org/2000/svg" xmlns:xlink="http://www.w3.org/1999/xlink" x="0px" y="0px"
	 viewBox="0 0 1080 174.1" style="enable-background:new 0 0 1080 174.1;" xml:space="preserve">
<style type="text/css">
	.st0{enable-background:new    ;}
	.st1{fill:#6B7280;}
</style>
<g>
	<g class="st0">
		<path class="st1" d="M-0.2,143.1V34.9c0-1.1,0.5-1.6,1.6-1.6h32.3c9.9,0,17.7,2.8,23.6,8.4c5.9,5.6,8.8,13.1,8.8,22.4v49.6
			c0,9.3-2.9,16.8-8.8,22.4c-5.9,5.6-13.8,8.4-23.6,8.4H1.4C0.4,144.7-0.2,144.1-0.2,143.1z M15.7,131.5l18.3-0.2
			c5.1,0,9.1-1.7,12.2-5.2c3-3.4,4.6-8.1,4.7-13.9V65.8c0-5.9-1.5-10.6-4.6-14.1c-3.1-3.4-7.2-5.2-12.4-5.2H15.7
			c-0.4,0-0.6,0.2-0.6,0.6v83.6C15.1,131.3,15.3,131.5,15.7,131.5z"/>
		<path class="st1" d="M147.9,46.6h-46.1c-0.4,0-0.6,0.2-0.6,0.6v34.3c0,0.4,0.2,0.6,0.6,0.6h30.4c1.1,0,1.6,0.5,1.6,1.6v10
			c0,1.1-0.5,1.6-1.6,1.6h-30.4c-0.4,0-0.6,0.2-0.6,0.6v34.8c0,0.4,0.2,0.6,0.6,0.6h46.1c1.1,0,1.6,0.5,1.6,1.6v10
			c0,1.1-0.5,1.6-1.6,1.6H87.5c-1.1,0-1.6-0.5-1.6-1.6V34.9c0-1.1,0.5-1.6,1.6-1.6h60.4c1.1,0,1.6,0.5,1.6,1.6v10
			C149.5,46,148.9,46.6,147.9,46.6z"/>
		<path class="st1" d="M230.4,33.4h12.1c1.1,0,1.6,0.5,1.6,1.6v108.1c0,1.1-0.5,1.6-1.6,1.6h-12.1c-1.1,0-1.6-0.5-1.6-1.6V62.9
			c0-0.3-0.1-0.5-0.3-0.6c-0.2-0.1-0.4,0.1-0.5,0.4l-18.9,31.3c-0.5,0.7-1.2,1.1-1.9,1.1h-2.5c-0.7,0-1.4-0.4-1.9-1.1l-19.1-31
			c-0.1-0.3-0.3-0.4-0.5-0.4c-0.2,0.1-0.3,0.2-0.3,0.6v79.8c0,1.1-0.5,1.6-1.6,1.6h-12.1c-1.1,0-1.6-0.5-1.6-1.6V34.9
			c0-1.1,0.5-1.6,1.6-1.6h12.1c0.7,0,1.4,0.4,1.9,1.1l22.3,35.9c0.1,0.1,0.3,0.2,0.5,0.2c0.2,0,0.4-0.1,0.5-0.2l22.1-35.9
			C229,33.7,229.7,33.4,230.4,33.4z"/>
		<path class="st1" d="M267.2,17.8c-1.9-1.9-2.9-4.3-2.9-7.3c0-3,1-5.4,2.9-7.3c1.9-1.9,4.3-2.9,7.3-2.9c3,0,5.4,1,7.3,2.9
			c1.9,1.9,2.9,4.3,2.9,7.3c0,3-1,5.4-2.9,7.3c-1.9,1.9-4.3,2.9-7.3,2.9C271.5,20.6,269.1,19.7,267.2,17.8z M266.8,143.1V34.9
			c0-1.1,0.5-1.6,1.6-1.6h12.1c1.1,0,1.6,0.5,1.6,1.6v108.1c0,1.1-0.5,1.6-1.6,1.6h-12.1C267.4,144.7,266.8,144.1,266.8,143.1z"/>
		<path class="st1" d="M357,143.4L338.6,96c-0.1-0.3-0.3-0.5-0.6-0.5h-17c-0.4,0-0.6,0.2-0.6,0.6v46.9c0,1.1-0.5,1.6-1.6,1.6h-12.1
			c-1.1,0-1.6-0.5-1.6-1.6V34.9c0-1.1,0.5-1.6,1.6-1.6h35.6c8.9,0,16.1,2.9,21.5,8.7c5.4,5.8,8.1,13.5,8.1,22.9
			c0,7.1-1.6,13.2-4.9,18.3c-3.3,5.1-7.8,8.6-13.5,10.5c-0.3,0.1-0.4,0.4-0.3,0.8l19.4,48.2l0.2,0.6c0,0.8-0.5,1.3-1.4,1.3h-12.4
			C357.9,144.7,357.3,144.2,357,143.4z M320.3,47.2v35.6c0,0.4,0.2,0.6,0.6,0.6h19.2c4.9,0,8.8-1.7,11.8-5c3-3.3,4.5-7.8,4.5-13.3
			c0-5.6-1.5-10.1-4.5-13.5c-3-3.4-6.9-5.1-11.9-5.1h-19.2C320.5,46.6,320.3,46.8,320.3,47.2z"/>
		<path class="st1" d="M453.5,34.9v10.2c0,1.1-0.5,1.6-1.6,1.6h-25.6c-0.4,0-0.6,0.2-0.6,0.6v95.7c0,1.1-0.5,1.6-1.6,1.6H412
			c-1.1,0-1.6-0.5-1.6-1.6V47.3c0-0.4-0.2-0.6-0.6-0.6h-24.5c-1.1,0-1.6-0.5-1.6-1.6V34.9c0-1.1,0.5-1.6,1.6-1.6h66.6
			C453,33.4,453.5,33.9,453.5,34.9z"/>
		<path class="st1" d="M516.3,143.2l-4.8-18.4c-0.1-0.3-0.4-0.5-0.8-0.5h-35.1c-0.5,0-0.8,0.2-0.8,0.5l-4.6,18.4
			c-0.1,1-0.7,1.4-1.8,1.4h-12.4c-0.5,0-0.9-0.2-1.2-0.5c-0.3-0.3-0.3-0.7-0.2-1.3l29.4-108.1c0.2-1,0.8-1.4,1.7-1.4h14.9
			c1,0,1.5,0.5,1.7,1.4l29.6,108.1l0.2,0.5c0,0.8-0.5,1.3-1.6,1.3h-12.6C517.1,144.7,516.6,144.2,516.3,143.2z M478.3,112
			c0.2,0.2,0.3,0.2,0.6,0.2h28.8c0.2,0,0.4-0.1,0.6-0.2c0.2-0.2,0.2-0.3,0.1-0.4L493.4,54c-0.1-0.2-0.2-0.3-0.3-0.3
			c-0.1,0-0.2,0.1-0.3,0.3l-14.6,57.6C478.1,111.7,478.1,111.8,478.3,112z"/>
		<path class="st1" d="M597.7,136.1c-4.8,5.2-11.5,8.3-20,9.4c-0.6,0.2-0.7,0.5-0.2,0.8c4.6,4.6,6.8,9.3,6.8,14.3
			c0,4.9-1.3,8.3-3.9,10.4c-2.6,2.1-5.9,3.1-9.8,3.1c-2.1,0-4.5-0.3-7-1c-1-0.3-1.4-1-1.3-1.9l0.8-5.1c0.1-0.4,0.3-0.8,0.6-1
			c0.3-0.3,0.7-0.3,1.3-0.2c1,0.3,1.9,0.5,2.7,0.5c1.5,0,2.8-0.4,3.8-1.3c1.1-0.8,1.8-2.1,2.2-3.8l0.2-1.4c0-2.1-0.7-4.3-2.1-6.5
			c-1.4-2.2-3.3-4.3-5.6-6.4c-0.1-0.2-0.4-0.3-0.8-0.3c-8.5-1.2-15.2-4.4-20.3-9.6c-5-5.2-7.6-11.8-7.6-19.8v-4.3
			c0-1.1,0.5-1.6,1.6-1.6H551c1.1,0,1.6,0.5,1.6,1.6v3.5c0,5.2,1.8,9.4,5.3,12.6c3.6,3.2,8.3,4.8,14.4,4.8c5.4,0,9.7-1.5,12.8-4.4
			c3.1-2.9,4.7-6.8,4.7-11.5c0-3.2-0.8-5.9-2.4-8.3c-1.6-2.3-3.9-4.5-6.9-6.5c-3-2-7.4-4.6-13.1-7.6c-6.5-3.4-11.6-6.4-15.5-9.1
			c-3.9-2.6-7.1-6-9.6-10c-2.5-4-3.8-8.9-3.8-14.6c0-8.9,2.9-15.9,8.7-21c5.8-5.1,13.6-7.6,23.2-7.6c6.7,0,12.6,1.3,17.7,3.8
			s9,6.1,11.8,10.7c2.8,4.6,4.2,9.9,4.2,16v3.7c0,1.1-0.5,1.6-1.6,1.6h-11.9c-1.1,0-1.6-0.5-1.6-1.6v-3.3c0-5.2-1.7-9.4-5.1-12.7
			c-3.4-3.3-8-4.9-13.8-4.9c-5.2,0-9.3,1.3-12.2,4c-2.9,2.7-4.4,6.4-4.4,11.3c0,3.2,0.7,5.9,2.1,8.1c1.4,2.2,3.6,4.3,6.6,6.3
			c3,2,7.4,4.4,13.2,7.4c7.3,4.1,12.9,7.5,16.6,10.2c3.8,2.7,6.8,5.9,9.2,9.7c2.4,3.8,3.6,8.4,3.6,13.8
			C604.9,124.2,602.5,130.9,597.7,136.1z"/>
	</g>
	<g class="st0">
		<path class="st1" d="M661.8,136.8c-5.7-5.2-8.6-12-8.6-20.5V112c0-1.1,0.5-1.6,1.6-1.6h4.9c1.1,0,1.6,0.5,1.6,1.6v3.8
			c0,6.4,2.1,11.5,6.4,15.4c4.3,3.9,10,5.9,17.3,5.9c6.9,0,12.3-1.8,16.3-5.5c4-3.7,6-8.6,6-14.7c0-3.9-0.9-7.3-2.7-10.3
			c-1.8-2.9-4.4-5.6-7.9-8c-3.4-2.4-8.3-5.4-14.7-8.7c-6.8-3.7-12-6.9-15.6-9.5c-3.6-2.6-6.5-5.7-8.7-9.4c-2.2-3.7-3.3-8.2-3.3-13.6
			c0-8.4,2.6-14.9,7.9-19.6c5.2-4.7,12.3-7.1,21.2-7.1c9.6,0,17.3,2.6,22.9,7.9c5.6,5.2,8.4,12.2,8.4,20.9v3.8
			c0,1.1-0.5,1.6-1.6,1.6h-5.2c-1.1,0-1.6-0.5-1.6-1.6v-3.5c0-6.6-2.1-11.8-6.2-15.7c-4.1-3.9-9.8-5.9-16.9-5.9
			c-6.5,0-11.5,1.7-15.2,5c-3.7,3.3-5.5,8.1-5.5,14.2c0,3.9,0.8,7.2,2.5,9.9c1.6,2.7,4,5,7.2,7.2c3.1,2.1,7.9,4.9,14.4,8.4
			c7.1,3.9,12.6,7.3,16.6,10.2c4,2.9,7,6.1,9.2,9.8c2.2,3.7,3.3,8.1,3.3,13.3c0,8.6-2.8,15.5-8.3,20.7c-5.6,5.2-13.1,7.8-22.5,7.8
			C675.2,144.6,667.5,142,661.8,136.8z"/>
		<path class="st1" d="M736.7,13.7c-1.5-1.5-2.2-3.4-2.2-5.7c0-2.3,0.7-4.2,2.2-5.7c1.5-1.5,3.4-2.2,5.7-2.2c2.3,0,4.2,0.7,5.7,2.2
			c1.5,1.5,2.2,3.4,2.2,5.7c0,2.3-0.7,4.2-2.2,5.7c-1.5,1.5-3.4,2.2-5.7,2.2C740.1,15.9,738.2,15.2,736.7,13.7z M738.3,141.7V33.6
			c0-1.1,0.5-1.6,1.6-1.6h5.2c1.1,0,1.6,0.5,1.6,1.6v108.1c0,1.1-0.5,1.6-1.6,1.6h-5.2C738.8,143.3,738.3,142.8,738.3,141.7z"/>
		<path class="st1" d="M777.7,136.8c-5.7-5.2-8.6-12-8.6-20.5V112c0-1.1,0.5-1.6,1.6-1.6h4.9c1.1,0,1.6,0.5,1.6,1.6v3.8
			c0,6.4,2.1,11.5,6.4,15.4c4.3,3.9,10,5.9,17.3,5.9c6.9,0,12.3-1.8,16.3-5.5c4-3.7,6-8.6,6-14.7c0-3.9-0.9-7.3-2.7-10.3
			c-1.8-2.9-4.4-5.6-7.9-8c-3.4-2.4-8.3-5.4-14.7-8.7c-6.8-3.7-12-6.9-15.6-9.5c-3.6-2.6-6.5-5.7-8.7-9.4s-3.3-8.2-3.3-13.6
			c0-8.4,2.6-14.9,7.9-19.6c5.2-4.7,12.3-7.1,21.2-7.1c9.6,0,17.3,2.6,22.9,7.9c5.6,5.2,8.4,12.2,8.4,20.9v3.8
			c0,1.1-0.5,1.6-1.6,1.6h-5.2c-1.1,0-1.6-0.5-1.6-1.6v-3.5c0-6.6-2.1-11.8-6.2-15.7c-4.1-3.9-9.8-5.9-16.9-5.9
			c-6.5,0-11.5,1.7-15.2,5c-3.7,3.3-5.5,8.1-5.5,14.2c0,3.9,0.8,7.2,2.5,9.9c1.6,2.7,4,5,7.2,7.2c3.1,2.1,7.9,4.9,14.4,8.4
			c7.1,3.9,12.6,7.3,16.6,10.2c4,2.9,7,6.1,9.2,9.8c2.2,3.7,3.3,8.1,3.3,13.3c0,8.6-2.8,15.5-8.3,20.7s-13.1,7.8-22.5,7.8
			C791.1,144.6,783.4,142,777.7,136.8z"/>
		<path class="st1" d="M907.5,33.6v4.3c0,1.1-0.5,1.6-1.6,1.6h-26.4c-0.4,0-0.6,0.2-0.6,0.6v101.6c0,1.1-0.5,1.6-1.6,1.6H872
			c-1.1,0-1.6-0.5-1.6-1.6V40.1c0-0.4-0.2-0.6-0.6-0.6h-25c-1.1,0-1.6-0.5-1.6-1.6v-4.3c0-1.1,0.5-1.6,1.6-1.6h61.1
			C906.9,32,907.5,32.5,907.5,33.6z"/>
		<path class="st1" d="M986.5,39.4h-48.8c-0.4,0-0.6,0.2-0.6,0.6v43.1c0,0.4,0.2,0.6,0.6,0.6h33.4c1.1,0,1.6,0.5,1.6,1.6v4.3
			c0,1.1-0.5,1.6-1.6,1.6h-33.4c-0.4,0-0.6,0.2-0.6,0.6v43.3c0,0.4,0.2,0.6,0.6,0.6h48.8c1.1,0,1.6,0.5,1.6,1.6v4.3
			c0,1.1-0.5,1.6-1.6,1.6h-56.3c-1.1,0-1.6-0.5-1.6-1.6V33.6c0-1.1,0.5-1.6,1.6-1.6h56.3c1.1,0,1.6,0.5,1.6,1.6v4.3
			C988.1,38.9,987.6,39.4,986.5,39.4z"/>
		<path class="st1" d="M1073,32h5.6c1.1,0,1.6,0.5,1.6,1.6v108.1c0,1.1-0.5,1.6-1.6,1.6h-5.2c-1.1,0-1.6-0.5-1.6-1.6V49.9
			c0-0.3-0.1-0.5-0.3-0.6c-0.2-0.1-0.4,0.1-0.5,0.4l-22.7,41c-0.3,0.7-1,1.1-1.9,1.1h-1.3c-0.7,0-1.4-0.4-1.9-1.1l-22.9-40.7
			c-0.1-0.3-0.3-0.4-0.5-0.4c-0.2,0.1-0.3,0.2-0.3,0.6v91.4c0,1.1-0.5,1.6-1.6,1.6h-5.2c-1.1,0-1.6-0.5-1.6-1.6V33.6
			c0-1.1,0.5-1.6,1.6-1.6h5.4c0.7,0,1.4,0.4,1.9,1.1l25.3,44.8c0.1,0.1,0.3,0.2,0.5,0.2c0.2,0,0.4-0.1,0.5-0.2l25-44.8
			C1071.6,32.3,1072.3,32,1073,32z"/>
	</g>
	<path class="st1" d="M629.9,158.5c-1.4,0-2.5-1.1-2.5-2.5V30.2c0-1.4,1.1-2.5,2.5-2.5c1.4,0,2.5,1.1,2.5,2.5v125.8
		C632.5,157.3,631.3,158.5,629.9,158.5z"/>
</g>
</svg>