<svg id="Layer_1" data-name="Layer 1" xmlns="http://www.w3.org/2000/svg" viewBox="0 0 1337.42 345.55"><defs><style>.cls-1{fill:#6B7280;}.cls-1,.cls-2{fill-rule:evenodd;}.cls-2{fill:#6B7280;}</style></defs><path class="cls-1" d="M1270.65,301.33a49.38,49.38,0,1,0-85.36,22.09l-.07,3.49A102.79,102.79,0,0,0,1162,339.84l-2.93.1a80.06,80.06,0,1,1,140-26.16,132,132,0,0,1,16.49,14,101.36,101.36,0,0,1,29.73,71.79c0,59.89-45.62,95.84-90.88,104.2-45.09,8.31-91.74-10.72-91.74-62.57a63.23,63.23,0,0,1,7.89-30.68,54.2,54.2,0,1,1,105.95-16.1,55.25,55.25,0,0,1-.69,8.68,54,54,0,0,1-14.56,29l-2.79,2.89-1.23-3.82a32.82,32.82,0,0,0-15.61-18.76l-1.25-3a24,24,0,0,0,5.42-15,23.48,23.48,0,0,0-46.06-6.43,23.12,23.12,0,0,0-.9,6.43,23.42,23.42,0,0,0,7.47,17.18l.47,3.17a32.73,32.73,0,0,0-13.41,26.43c0,28,28.83,39,60,31.57,30.76-7.29,61.15-32.27,61.15-73.2a70.8,70.8,0,0,0-20.73-50.08,103.41,103.41,0,0,0-11.15-9.65,101,101,0,0,0-22.36-12.59l-3.14-1.27C1265,317.21,1268.85,309.64,1270.65,301.33Zm-126.94,53.09.38,2.56a101.08,101.08,0,0,0-22.85,64c0,49.5,37.76,104.62,119.12,104.62a125.67,125.67,0,0,0,88.17-36l23.47,20c-30.07,29.53-68.85,46.68-111.64,46.68-91.25,0-149.82-61.79-149.82-135.33a131.38,131.38,0,0,1,35.36-89.87l3.59-.2A102.68,102.68,0,0,0,1143.71,354.42Z" transform="translate(-14.58 -210.78)"/><path class="cls-2" d="M538.12,408.74a83.89,83.89,0,0,1,0,28.16H430V408.74h79.34a54.67,54.67,0,1,0-52.83,68.74,82.48,82.48,0,0,0,52-18.32l23.76,16.64a110.62,110.62,0,0,1-75.72,29.84,82.82,82.82,0,1,1,81.63-96.9Zm356.51,0a84.59,84.59,0,0,1,0,28.16H786.49V408.74h79.33A54.67,54.67,0,1,0,813,477.48a82.48,82.48,0,0,0,52-18.32l23.76,16.64A110.6,110.6,0,0,1,813,505.64a82.82,82.82,0,1,1,81.64-96.9Zm76.61,5.62a93.65,93.65,0,0,1,61.56,88h-28.16a65.43,65.43,0,0,0-65.43-65.43v65.43H911.05V305.22h28.16V408.74l54.9-65.43h36.76Zm-391.16,8.46a54.64,54.64,0,1,0,24.13-45.35l-15.74-23.35a82.83,82.83,0,1,1-36.55,68.7V305.22h28.16Zm-356.5,0a54.64,54.64,0,1,0,24.13-45.35L232,354.12a82.83,82.83,0,1,1-36.54,68.7V305.22h28.16ZM179,408.74a83.2,83.2,0,0,1,0,28.16H70.89V408.74h79.34a54.67,54.67,0,1,0-52.84,68.74,82.48,82.48,0,0,0,52-18.32l23.77,16.64a110.63,110.63,0,0,1-75.73,29.84A82.82,82.82,0,1,1,179,408.74Z" transform="translate(-14.58 -210.78)"/></svg>